<svg xmlns="http://www.w3.org/2000/svg" width="900" height="300" viewBox="0 0 900 300" role="img" aria-label="Bookr">
  <rect x="1" y="1" width="898" height="298" rx="32" fill="#FBFAF6" stroke="#ECE7DB" stroke-width="2"/>
  <rect x="120" y="78" width="144" height="144" rx="34" fill="#E58A38"/>
  <g transform="translate(138 96) scale(4.5)" fill="none" stroke="#241F1B" stroke-width="2" stroke-linecap="round" stroke-linejoin="round">
    <path d="M2 9a3 3 0 1 1 0 6v2a2 2 0 0 0 2 2h16a2 2 0 0 0 2-2v-2a3 3 0 1 1 0-6V7a2 2 0 0 0-2-2H4a2 2 0 0 0-2 2Z"/>
    <path d="M13 5v2"/>
    <path d="M13 17v2"/>
    <path d="M13 11v2"/>
  </g>
  <text x="308" y="150" dominant-baseline="central" fill="#241F1B"
        font-family="'Bricolage Grotesque', ui-sans-serif, system-ui, -apple-system, 'Segoe UI', Roboto, Helvetica, Arial, sans-serif"
        font-size="128" font-weight="800" letter-spacing="-3">Bookr</text>
</svg>
